<?xml version="1.0" ?><svg viewBox="0 0 64 64" xmlns="http://www.w3.org/2000/svg"><title/><g data-name="37-Guard" id="_37-Guard"><path d="M36,8V9a3.206,3.206,0,0,1-1.06,1.94A10.253,10.253,0,0,1,32,13a13.59,13.59,0,0,1-2.94-2.05A3,3,0,0,1,28,9V4h8Z" style="fill:#ffa426"/><path d="M40,24v1a7.992,7.992,0,0,1-11.97,6.94,7.838,7.838,0,0,1-1.69-1.28A8.014,8.014,0,0,1,24,25V14.35A16.345,16.345,0,0,0,32,16a16.345,16.345,0,0,0,8-1.65V24Z" style="fill:#ffdaaa"/><path d="M32,16a16.345,16.345,0,0,1-8-1.65v3A16.345,16.345,0,0,0,32,19a16.345,16.345,0,0,0,8-1.65v-3A16.345,16.345,0,0,1,32,16Z" style="fill:#ffb680"/><path d="M36,32v5l-4,4-4-4V32l.03-.06a7.964,7.964,0,0,0,7.94,0Z" style="fill:#ffb680"/><path d="M35.97,31.94a7.964,7.964,0,0,1-7.94,0L28,32v3l.03-.06a7.964,7.964,0,0,0,7.94,0L36,35V32Z" style="fill:#eb975d"/><path d="M21.72,16.72A4.009,4.009,0,0,1,24,16v8a4,4,0,0,1-2.28-7.28Z" style="fill:#eb975d"/><path d="M42.28,16.72A4,4,0,0,1,40,24V16A4.009,4.009,0,0,1,42.28,16.72Z" style="fill:#eb975d"/><path d="M43,11v5l-.72.72A4.009,4.009,0,0,0,40,16V14.35A5.637,5.637,0,0,0,43,11Z" style="fill:#afb4c8"/><path d="M24,14.35V16a4.009,4.009,0,0,0-2.28.72L21,16V11A5.637,5.637,0,0,0,24,14.35Z" style="fill:#afb4c8"/><path d="M45,3V5L44,8H36V4H28V8H20L19,5V3l2-2H43Z" style="fill:#4a98f7"/><polygon points="43 1 21 1 19 3 19 5 19.25 5.75 21 4 28 4 36 4 43 4 44.75 5.75 45 5 45 3 43 1" style="fill:#2864f0"/><path d="M44,8l-1,3H35l-.06-.06A3.206,3.206,0,0,0,36,9V8Z" style="fill:#414952"/><path d="M40,14.35A16.345,16.345,0,0,1,32,16a16.345,16.345,0,0,1-8-1.65A5.637,5.637,0,0,1,21,11h8l.06-.05A13.59,13.59,0,0,0,32,13a10.253,10.253,0,0,0,2.94-2.06L35,11h8A5.637,5.637,0,0,1,40,14.35Z" style="fill:#e9edf5"/><polygon points="39 37.63 39 40 35 44 32 41 36 37 39 37.63" style="fill:#87c7ff"/><polygon points="32 41 29 44 25 40 25 37.63 28 37 32 41" style="fill:#87c7ff"/><path d="M29.06,10.95,29,11H21L20,8h8V9A3,3,0,0,0,29.06,10.95Z" style="fill:#414952"/><rect height="5" style="fill:#afb4c8" width="6" x="9" y="53"/><rect height="5" style="fill:#afb4c8" width="17" x="15" y="53"/><rect height="5" style="fill:#afb4c8" width="17" x="32" y="53"/><rect height="5" style="fill:#afb4c8" width="6" x="49" y="53"/><path d="M55,41v7a7,7,0,0,1-7-7V39.53Z" style="fill:#afb4c8"/><path d="M16,39.53V41a7,7,0,0,1-7,7V41Z" style="fill:#afb4c8"/><rect height="5" style="fill:#e9edf5" width="6" x="9" y="58"/><rect height="5" style="fill:#e9edf5" width="6" x="49" y="58"/><rect height="5" style="fill:#e9edf5" width="17" x="32" y="58"/><rect height="5" style="fill:#e9edf5" width="17" x="15" y="58"/><path d="M32,41V53H9V48a7,7,0,0,0,7-7V39.53l9-1.9V40l4,4Z" style="fill:#e9edf5"/><path d="M49,53H32V41l3,3,4-4V37.63l9,1.9V41a7,7,0,0,0,7,7v5Z" style="fill:#e9edf5"/><polyline points="28 32 28 37 25 37.63 16 39.53 9 41 9 48 9 53 9 58 9 63 15 63 32 63 49 63 55 63 55 58 55 53 55 48 55 41 48 39.53 39 37.63 36 37 36 32" style="fill:none;stroke:#000;stroke-linejoin:round;stroke-width:2px"/><polyline points="15 63 15 58 15 53 15 50" style="fill:none;stroke:#000;stroke-linejoin:round;stroke-width:2px"/><polyline points="49 63 49 58 49 53 49 50" style="fill:none;stroke:#000;stroke-linejoin:round;stroke-width:2px"/><polyline points="28 37 32 41 36 37" style="fill:none;stroke:#000;stroke-linejoin:round;stroke-width:2px"/><polyline points="39 37 39 37.63 39 40 35 44 32 41 29 44 25 40 25 37.63 25 37" style="fill:none;stroke:#000;stroke-linejoin:round;stroke-width:2px"/><polyline points="9 53 15 53 32 53 49 53 55 53" style="fill:none;stroke:#000;stroke-linejoin:round;stroke-width:2px"/><polyline points="9 58 15 58 32 58 49 58 55 58" style="fill:none;stroke:#000;stroke-linejoin:round;stroke-width:2px"/><polyline points="32 41 32 53 32 58 32 63" style="fill:none;stroke:#000;stroke-linejoin:round;stroke-width:2px"/><path d="M55,48a7,7,0,0,1-7-7V39" style="fill:none;stroke:#000;stroke-linejoin:round;stroke-width:2px"/><path d="M9,48a7,7,0,0,0,7-7V39" style="fill:none;stroke:#000;stroke-linejoin:round;stroke-width:2px"/><path d="M40,24a4,4,0,0,0,2.28-7.28A3.912,3.912,0,0,0,40,16" style="fill:none;stroke:#000;stroke-linejoin:round;stroke-width:2px"/><path d="M24,16a4,4,0,0,0,0,8" style="fill:none;stroke:#000;stroke-linejoin:round;stroke-width:2px"/><path d="M40,14V25a7.992,7.992,0,0,1-11.97,6.94,7.838,7.838,0,0,1-1.69-1.28A8.014,8.014,0,0,1,24,25V14" style="fill:none;stroke:#000;stroke-linejoin:round;stroke-width:2px"/><polyline points="43 11 44 8 45 5 45 3 43 1 21 1 19 3 19 5 20 8 21 11" style="fill:none;stroke:#000;stroke-linejoin:round;stroke-width:2px"/><path d="M42,17l.28-.28L43,16V11a5.637,5.637,0,0,1-3,3.35A16.345,16.345,0,0,1,32,16a16.345,16.345,0,0,1-8-1.65A5.637,5.637,0,0,1,21,11v5l.72.72L22,17" style="fill:none;stroke:#000;stroke-linejoin:round;stroke-width:2px"/><path d="M28,8V4h8V9a3.206,3.206,0,0,1-1.06,1.94A10.253,10.253,0,0,1,32,13a13.59,13.59,0,0,1-2.94-2.05A3,3,0,0,1,28,9Z" style="fill:none;stroke:#000;stroke-linejoin:round;stroke-width:2px"/><line style="fill:none;stroke:#000;stroke-linejoin:round;stroke-width:2px" x1="21" x2="29" y1="11" y2="11"/><line style="fill:none;stroke:#000;stroke-linejoin:round;stroke-width:2px" x1="35" x2="43" y1="11" y2="11"/><line style="fill:none;stroke:#000;stroke-linejoin:round;stroke-width:2px" x1="28" x2="20" y1="8" y2="8"/><line style="fill:none;stroke:#000;stroke-linejoin:round;stroke-width:2px" x1="36" x2="44" y1="8" y2="8"/></g></svg>